<svg width="150" height="30" viewBox="0 0 150 30" fill="none" xmlns="http://www.w3.org/2000/svg">
<rect x="0.5" y="0.5" width="149" height="29" rx="3.5" fill="#F8F8F8" stroke="#D3D3D3"/>
<line x1="10" y1="5" x2="10" y2="25" stroke="#333333" stroke-width="1"/>
<line x1="20" y1="10" x2="20" y2="25" stroke="#333333" stroke-width="0.5"/>
<line x1="30" y1="5" x2="30" y2="25" stroke="#333333" stroke-width="1"/>
<line x1="40" y1="10" x2="40" y2="25" stroke="#333333" stroke-width="0.5"/>
<line x1="50" y1="5" x2="50" y2="25" stroke="#333333" stroke-width="1"/>
<line x1="60" y1="10" x2="60" y2="25" stroke="#333333" stroke-width="0.5"/>
<line x1="70" y1="5" x2="70" y2="25" stroke="#333333" stroke-width="1"/>
<line x1="80" y1="10" x2="80" y2="25" stroke="#333333" stroke-width="0.5"/>
<line x1="90" y1="5" x2="90" y2="25" stroke="#333333" stroke-width="1"/>
<line x1="100" y1="10" x2="100" y2="25" stroke="#333333" stroke-width="0.5"/>
<line x1="110" y1="5" x2="110" y2="25" stroke="#333333" stroke-width="1"/>
<line x1="120" y1="10" x2="120" y2="25" stroke="#333333" stroke-width="0.5"/>
<line x1="130" y1="5" x2="130" y2="25" stroke="#333333" stroke-width="1"/>
<text x="7" y="15" font-family="Arial" font-size="8" fill="#333333">1</text>
<text x="27" y="15" font-family="Arial" font-size="8" fill="#333333">2</text>
<text x="47" y="15" font-family="Arial" font-size="8" fill="#333333">3</text>
<text x="67" y="15" font-family="Arial" font-size="8" fill="#333333">4</text>
<text x="87" y="15" font-family="Arial" font-size="8" fill="#333333">5</text>
<text x="107" y="15" font-family="Arial" font-size="8" fill="#333333">6</text>
<text x="127" y="15" font-family="Arial" font-size="8" fill="#333333">7</text>
</svg>